<svg xmlns="http://www.w3.org/2000/svg" width="920" height="520" viewBox="0 0 920 520">
<rect width="100%" height="100%" fill="#ffffff"/>
<text x="460.0" y="38" text-anchor="middle" font-family="Arial, sans-serif" font-size="26" font-weight="700" fill="#202124">SW Pick Time Reduction</text>
<text x="35" y="252.5" transform="rotate(-90 35,252.5)" text-anchor="middle" font-family="Arial" font-size="15" fill="#555">seconds</text>
<line x1="90" y1="425" x2="880" y2="425" stroke="#333" stroke-width="2"/>
<line x1="90" y1="80" x2="90" y2="425" stroke="#333" stroke-width="2"/>
<line x1="90" y1="425.0" x2="880" y2="425.0" stroke="#e8eaed"/>
<text x="80" y="430.0" text-anchor="end" font-family="Arial" font-size="13" fill="#666">0</text>
<line x1="90" y1="356.0" x2="880" y2="356.0" stroke="#e8eaed"/>
<text x="80" y="361.0" text-anchor="end" font-family="Arial" font-size="13" fill="#666">8</text>
<line x1="90" y1="287.0" x2="880" y2="287.0" stroke="#e8eaed"/>
<text x="80" y="292.0" text-anchor="end" font-family="Arial" font-size="13" fill="#666">16</text>
<line x1="90" y1="218.0" x2="880" y2="218.0" stroke="#e8eaed"/>
<text x="80" y="223.0" text-anchor="end" font-family="Arial" font-size="13" fill="#666">24</text>
<line x1="90" y1="149.0" x2="880" y2="149.0" stroke="#e8eaed"/>
<text x="80" y="154.0" text-anchor="end" font-family="Arial" font-size="13" fill="#666">32</text>
<line x1="90" y1="80.0" x2="880" y2="80.0" stroke="#e8eaed"/>
<text x="80" y="85.0" text-anchor="end" font-family="Arial" font-size="13" fill="#666">40</text>
<rect x="207.0" y="111.1" width="219.4" height="313.9" rx="8" fill="#9aa0a6"/>
<text x="316.8" y="99.1" text-anchor="middle" font-family="Arial" font-size="22" font-weight="700" fill="#9aa0a6">36.4</text>
<text x="316.8" y="459" text-anchor="middle" font-family="Arial" font-size="16" fill="#333">Before</text>
<rect x="543.5" y="295.1" width="219.4" height="129.9" rx="8" fill="#1a73e8"/>
<text x="653.2" y="283.1" text-anchor="middle" font-family="Arial" font-size="22" font-weight="700" fill="#1a73e8">15.1</text>
<text x="653.2" y="459" text-anchor="middle" font-family="Arial" font-size="16" fill="#333">Current avg</text>
</svg>