<svg xmlns="http://www.w3.org/2000/svg" width="920" height="520" viewBox="0 0 920 520">
<rect width="100%" height="100%" fill="#ffffff"/>
<text x="460.0" y="38" text-anchor="middle" font-family="Arial, sans-serif" font-size="26" font-weight="700" fill="#202124">SW Demo Completion / Verification</text>
<text x="35" y="252.5" transform="rotate(-90 35,252.5)" text-anchor="middle" font-family="Arial" font-size="15" fill="#555">percent</text>
<line x1="90" y1="425" x2="880" y2="425" stroke="#333" stroke-width="2"/>
<line x1="90" y1="80" x2="90" y2="425" stroke="#333" stroke-width="2"/>
<line x1="90" y1="425.0" x2="880" y2="425.0" stroke="#e8eaed"/>
<text x="80" y="430.0" text-anchor="end" font-family="Arial" font-size="13" fill="#666">0</text>
<line x1="90" y1="356.0" x2="880" y2="356.0" stroke="#e8eaed"/>
<text x="80" y="361.0" text-anchor="end" font-family="Arial" font-size="13" fill="#666">20</text>
<line x1="90" y1="287.0" x2="880" y2="287.0" stroke="#e8eaed"/>
<text x="80" y="292.0" text-anchor="end" font-family="Arial" font-size="13" fill="#666">40</text>
<line x1="90" y1="218.0" x2="880" y2="218.0" stroke="#e8eaed"/>
<text x="80" y="223.0" text-anchor="end" font-family="Arial" font-size="13" fill="#666">60</text>
<line x1="90" y1="149.0" x2="880" y2="149.0" stroke="#e8eaed"/>
<text x="80" y="154.0" text-anchor="end" font-family="Arial" font-size="13" fill="#666">80</text>
<line x1="90" y1="80.0" x2="880" y2="80.0" stroke="#e8eaed"/>
<text x="80" y="85.0" text-anchor="end" font-family="Arial" font-size="13" fill="#666">100</text>
<rect x="177.8" y="80.0" width="146.3" height="345.0" rx="8" fill="#188038"/>
<text x="250.9" y="68.0" text-anchor="middle" font-family="Arial" font-size="22" font-weight="700" fill="#188038">100.0</text>
<text x="250.9" y="459" text-anchor="middle" font-family="Arial" font-size="16" fill="#333">Pick-place
sequence</text>
<rect x="411.9" y="80.0" width="146.3" height="345.0" rx="8" fill="#188038"/>
<text x="485.0" y="68.0" text-anchor="middle" font-family="Arial" font-size="22" font-weight="700" fill="#188038">100.0</text>
<text x="485.0" y="459" text-anchor="middle" font-family="Arial" font-size="16" fill="#333">Tray place</text>
<rect x="645.9" y="425.0" width="146.3" height="0.0" rx="8" fill="#d93025"/>
<text x="719.1" y="413.0" text-anchor="middle" font-family="Arial" font-size="22" font-weight="700" fill="#d93025">0.0</text>
<text x="719.1" y="459" text-anchor="middle" font-family="Arial" font-size="16" fill="#333">Auto gripper
confirmed</text>
</svg>